<?xml version="1.0" encoding="UTF-8"?>
<svg width="230px" height="256px" viewBox="0 0 230 256" version="1.1" xmlns="http://www.w3.org/2000/svg" xmlns:xlink="http://www.w3.org/1999/xlink">
  <g stroke="none" stroke-width="1" fill="none" fill-rule="evenodd">
    <path d="M229.558184,155.469742 C225.012221,156.687706 218.644417,159.347436 215.760883,166.791853 C211.969571,176.565399 210.331485,192.245791 197.493791,201.798675 C197.87465,212.648049 193.435485,224.18454 188.852613,230.691337 C183.432638,238.375264 168.444859,255.583804 152.484908,255.853939 C142.481276,256.025129 132.098356,249.776687 131.159166,238.86292 C131.044515,237.522454 131.067288,236.169423 131.210209,234.832098 C127.308172,232.586994 126.149104,228.476074 126.760834,223.973301 C122.071951,214.773791 115.46935,200.656883 111.681963,194.868613 C108.994748,194.055853 106.163828,192.822969 103.201767,191.104785 C101.471804,191.543755 99.876908,191.884564 98.3817423,192.142135 C100.560883,196.015902 104.697718,201.914896 108.010012,206.451436 C117.700319,207.743215 120.649816,213.706601 119.035288,218.249423 C125.407804,223.577521 129.80535,234.53762 122.338945,240.052613 C114.21762,246.052908 98.1634356,251.49173 81.7786503,251.755583 C52.269546,252.224393 36.4124663,235.218454 36.2436319,222.087067 C36.1117055,212.132908 45.4564908,203.451681 54.422773,202.117497 C65.9105767,200.408736 77.2907975,206.921031 86.1039509,211.558871 C86.7329571,210.540368 87.7388957,209.700123 89.0149693,209.086822 C85.9170552,202.927117 81.6679264,195.547092 78.651681,189.933153 C75.232589,188.562061 71.7922945,187.010356 67.177227,186.086871 C71.2575215,177.69384 68.6472638,167.537865 71.990184,160.871656 C68.6747485,142.57708 81.6608589,126.210356 94.5056196,118.924564 C84.0535951,117.453742 75.5702577,111.789546 74.9294724,103.743607 C73.4523681,103.080049 72.0734233,102.214675 70.9441963,101.207166 C67.7999509,98.3911656 64.5441963,91.3417423 70.0105031,86.6347975 C73.8033865,83.3601963 78.3430675,83.9570061 83.6483926,90.2886871 C83.7983804,90.4708712 83.9381595,90.6428466 84.0826503,90.8171779 C84.3739877,90.6271411 84.6865276,90.4496687 85.0367607,90.3020368 C84.1973006,88.9356564 83.5023313,87.4491288 82.958135,85.8801472 C78.1655951,82.7516074 66.0699877,72.433865 62.7600491,69.3053252 C59.1941104,70.2994847 55.3619632,69.6382822 51.8478528,66.56 C49.5917546,67.1536687 47.1189202,67.5125399 44.4120736,67.5808589 C39.1640736,67.7222086 37.7113129,66.4359264 33.5626994,66.5442945 C24.0286626,66.7853742 8.41658896,72.1598037 5.51813497,65.9757546 C5.49065031,65.9160736 5.47337423,65.8556074 5.44431902,65.7959264 C0.269349693,65.174773 -1.3129816,59.1289325 4.39519018,52.3190184 C4.33707975,41.9368834 22.8538896,34.56 31.3709939,30.7867485 C39.8017178,27.0488344 45.6543804,20.0104049 51.9656442,18.9879755 C50.4673374,14.9665767 50.8309202,9.82694479 54.1008098,5.86522699 C60.370454,-1.7362454 72.1283926,-0.654920245 74.5980859,4.72814724 C78.5456687,13.3559755 67.6758773,16.6706258 67.1041963,22.2774969 C70.8311166,26.8509448 72.5563681,35.5934233 71.0659141,44.1890552 C73.8756319,47.2162945 74.6318528,52.0889325 73.9565153,56.4189448 C76.407362,59.241227 82.2239018,63.200589 84.1564663,64.3415951 C88.0380859,55.0612025 97.3970061,48.136638 106.437104,45.5923436 C97.6192393,41.9659387 94.2496196,35.5887117 93.6575215,27.4815215 C92.8785276,16.7978405 101.479656,2.81442945 116.034748,1.2407362 C127.869644,-0.0447607362 140.913865,5.98930061 143.929325,21.151411 C146.50346,34.116319 136.923092,42.8957055 130.143018,45.4093742 C136.757399,47.1566135 143.101644,51.3696196 146.97227,56.5139632 C144.561472,43.3189693 156.202405,29.7682454 170.128491,29.4156564 C182.718037,29.101546 192.929767,40.4660613 192.929767,54.5413497 C192.929767,68.6182086 182.457325,79.7604908 169.859141,79.7604908 C164.143902,79.7604908 158.899043,77.9983313 155.886724,75.4720982 C158.024245,87.6564417 153.653399,103.806429 143.641129,111.872785 C147.622479,114.619681 149.696393,124.157644 152.076564,132.82238 C154.134773,140.33119 157.410945,145.121374 154.837595,150.439264 C152.898748,154.433178 148.16589,156.909153 143.116564,157.672442 C142.543313,158.785963 141.634748,159.712589 140.503166,160.424049 C140.631951,161.682061 140.601325,162.871755 140.42935,164.000982 C145.11038,166.963828 144.138209,175.948957 134.240589,180.25227 C135.690209,183.071411 136.570503,185.243485 136.813153,187.856883 C136.610552,188.488245 136.257963,189.141595 135.778945,189.798086 C138.56746,193.000442 143.583018,199.120098 146.343264,200.656883 C153.760982,182.197399 167.266945,172.028074 182.732957,178.908663 C192.542626,183.270871 196.604074,191.270479 197.374429,199.936 C209.503018,189.556221 212.006479,172.835337 214.785571,166.310479 C218.395485,157.825571 226.233325,155.469742 229.558184,155.469742 Z M134.338748,191.405546 C133.372859,192.298405 132.170601,193.144933 130.750037,193.875239 C132.484712,196.736785 137.55838,203.175264 139.555337,205.181644 C141.404663,204.236957 143.291681,203.758724 145.126086,203.911853 C145.334184,203.298552 145.552491,202.700172 145.776294,202.108074 C143.552393,201.052663 136.718135,194.058994 134.338748,191.405546 Z M134.315975,133.940613 C133.630429,132.278969 132.930748,130.67308 132.217718,129.305129 C130.182282,129.578405 127.561031,130.95892 125.563288,132.597006 C128.45389,132.468221 131.408098,132.882061 134.315975,133.940613 L134.315975,133.940613 Z" id="Fill-1" fill="#000000"></path>
    <path d="M127.616785,180.632344 C116.766626,182.500515 106.049963,172.761521 105.728,160.341595 C105.599215,161.746454 105.618061,163.108123 105.749988,164.424245 C104.508466,163.917742 100.85065,161.289423 100.979436,156.850258 C101.370503,143.354503 117.829104,129.835975 133.464736,134.216245 C126.226847,133.889571 116.647264,142.627337 120.866552,153.887411 C123.893791,161.978896 133.814184,163.782675 139.570258,160.954896 C139.435975,168.927018 133.478871,174.574724 128.292908,176.574037 C129.810061,176.409129 131.633472,175.718871 133.408196,174.574724 C132.765055,175.654479 131.858847,176.445252 130.486184,177.28 C132.576589,177.013006 134.18719,175.239853 134.633227,173.691288 C137.175166,171.688049 139.444613,168.724417 140.260515,164.970012 C144.481374,168.279951 141.48162,178.249031 127.616785,180.632344" id="Fill-2" fill="#FFFFFF"></path>
    <path d="M99.7606871,157.825571 C96.2866258,156.325693 95.6866748,149.543264 98.1634356,144.003141 C100.855362,138.016982 106.83681,134.005006 109.551509,139.006429 C103.827632,143.670184 99.9381595,150.264147 99.7190675,156.687706 C99.7065031,157.083485 99.7269202,157.458061 99.7606871,157.825571" id="Fill-3" fill="#FFFFFF"></path>
    <path d="M121.964368,153.301595 C118.063902,142.83465 127.904982,133.719166 134.692123,134.874307 C135.110675,135.918724 135.519804,136.963141 135.910871,137.97065 C129.912933,138.784982 124.78665,144.323534 127.239067,151.166429 C129.111951,156.412074 135.760883,158.479706 142.159313,157.792589 C139.055117,162.393521 125.656736,163.246331 121.964368,153.301595" id="Fill-4" fill="#FFFFFF"></path>
    <path d="M95.0576687,52.4297423 C92.324908,55.6674356 90.6883926,59.5231411 90.5470429,61.5507239 C90.2109448,60.9554847 89.7358528,59.9801718 88.6011288,59.1564172 C90.3373742,56.6733742 92.4811779,54.3945031 95.0576687,52.4297423" id="Fill-5" fill="#000000"></path>
    <path d="M44.4120736,66.1485153 C39.7051288,66.2702331 38.3520982,65.1653497 33.7252515,65.2470184 C25.7908221,65.3867975 8.9073865,70.4706748 6.4753865,65.4189939 C2.87882209,57.9463067 16.8465276,49.2226748 29.8585521,53.2990429 C18.2003436,47.2948221 2.43357055,55.8064294 5.09644172,64.8433865 C1.95533742,64.3007607 -0.0863803681,59.460319 5.87072393,52.7650552 C12.6193865,45.1792883 24.772319,42.8729325 30.125546,39.9328589 C23.2912883,42.1504785 12.4214969,44.3217669 5.83852761,50.7775215 C8.4676319,41.7358528 24.630184,35.4772025 32.1319264,31.8712147 C38.3324663,28.8800982 46.6328344,21.2605644 54.1008098,18.8819632 C53.677546,18.8513374 53.2605644,18.8544785 52.8420123,18.8866748 C51.7222086,15.0631656 52.3551411,10.760638 55.318773,6.95990184 C60.017865,0.932907975 71.0729816,0.481374233 73.472,5.46002454 C76.9060123,12.5824785 66.7633865,15.5830184 66.3935215,21.4906503 C65.4661104,20.5381104 64.4264049,19.8297914 63.3018896,19.424589 C75.3676564,28.1490061 73.8662086,65.4064294 44.4120736,66.1485153" id="Fill-6" fill="#FFFFFF"></path>
    <path d="M52.9103313,66.2529571 C63.4597301,63.021546 68.9629448,54.3819387 70.8389693,45.3622577 C73.6376933,49.2776442 73.4570798,57.9737914 70.2248834,62.0690061 C65.3797301,68.2027975 58.8093252,70.7329571 52.9103313,66.2529571" id="Fill-7" fill="#FFFFFF"></path>
    <path d="M63.9583804,68.9016933 C67.3327117,67.8023067 73.1775215,62.5244663 73.7083681,57.7020859 C76.302135,60.5871902 81.7880736,64.3832147 83.7017914,65.4127117 C81.2635092,71.6211043 80.887362,78.3069448 82.4060859,84.0763681 C77.6331779,80.7271656 67.0515828,71.5410061 63.9583804,68.9016933" id="Fill-8" fill="#000000"></path>
    <path d="M75.8537423,104.130748 C79.6866748,105.587436 83.9797791,105.633767 86.4062822,103.136589 C89.4044663,100.059877 88.8327853,96.8724417 84.736,91.6362209 C89.1209816,89.7036564 94.7419877,90.3892025 100.327656,92.680638 C98.0330798,91.1163681 95.3552883,90.1363436 92.6869202,89.7099387 C93.0238037,88.5814969 92.8981595,87.1640736 92.4521227,86.2531534 C92.8981595,80.7915583 90.4198282,73.3510675 87.6564417,73.9031166 C84.0944294,74.6208589 84.4595828,84.969227 86.985816,89.7083681 C86.5468466,89.7916074 86.1864049,89.901546 85.791411,90.029546 C81.3428221,82.6086871 81.5611288,69.9327607 88.0380859,59.9935215 C89.3628466,61.0426503 89.8065276,62.0690061 90.8446626,63.3623558 C91.3307485,58.4936442 97.9647607,47.7652025 105.346356,47.8853497 C117.171043,48.0769571 122.609865,69.0218405 121.922748,85.2134479 C127.118135,75.3912147 136.610552,70.024638 143.739288,71.455411 C150.454184,72.8037301 152.816294,78.0862822 154.855656,85.0611043 C154.076663,93.5554356 151.030577,103.664294 143.454233,110.929669 C143.733006,109.788663 143.908123,108.642945 143.929325,107.52 C142.175018,112.447607 139.334675,118.832687 133.814184,121.825374 C126.558233,125.869546 111.327804,122.221153 102.696049,119.204123 C105.323583,119.025865 107.967607,118.581399 110.568442,117.857374 C115.338994,119.662724 126.526037,124.319411 135.358822,116.993571 C144.420123,109.467485 136.791166,98.4555583 135.828417,88.5964172 C136.002748,87.4185031 136.113472,86.2209571 136.147239,85.006135 C138.671902,84.4980613 141.291583,84.5459632 143.594798,85.4568834 C138.092368,81.3695215 129.995387,84.9370307 127.198233,89.5984294 C129.100957,87.6705767 132.12584,85.9861595 135.365104,85.1851779 C134.660712,100.262479 122.444172,112.806479 110.14989,116.46508 C95.607362,120.794307 78.0760736,115.231411 75.8537423,104.130748" id="Fill-9" fill="#FCE1C6"></path>
    <path d="M89.1037055,89.4829939 C88.5791411,89.4971288 88.1653006,89.5324663 87.6776442,89.5984294 C85.6649816,85.065816 85.2959018,74.9797301 87.7066994,74.5800245 C89.4704294,74.285546 91.3543067,80.2764172 91.7477301,85.2637055 C89.8599264,83.5109693 88.356908,87.4444172 89.1037055,89.4829939" id="Fill-10" fill="#FFFFFF"></path>
    <path d="M130.566282,113.989104 C130.680933,105.233276 134.338748,101.013988 137.862282,100.89384 C139.168982,106.298896 139.582822,111.854724 134.463607,116.101497 C130.735902,119.183706 126.526037,120.031018 122.628712,119.897521 C122.272982,115.357055 127.239067,109.53973 130.27573,109.304933 C130.182282,110.70665 130.26081,112.268564 130.566282,113.989104" id="Fill-11" fill="#EC967E"></path>
    <path d="M130.340908,108.651583 C126.218209,108.697914 121.418601,114.845055 121.91411,119.865325 C117.737227,119.599902 114.03308,118.280638 111.746356,117.500074 C121.427239,114.283583 132.52162,104.147239 135.434209,90.8171779 C135.730258,93.6104049 136.821791,96.822184 137.669104,100.108564 C134.407853,100.222429 130.929865,103.050209 130.340908,108.651583" id="Fill-12" fill="#9D2D26"></path>
    <path d="M96.1342822,119.115387 C97.6333742,119.262233 99.1560245,119.321914 100.699092,119.289718 C108.89816,122.828172 126.575509,127.457374 134.624589,122.920049 C138.374282,120.799018 141.487902,116.772908 142.978356,112.473521 C146.048785,114.347975 148.598577,123.805055 150.911215,133.228368 C152.472344,139.560049 156.358675,144.775853 153.782184,150.004221 C149.625718,158.417669 131.237693,159.743215 128.173546,150.92692 C125.909595,144.409914 130.754748,139.402209 136.159804,138.590233 C136.570503,139.645644 136.969423,140.644515 137.334577,141.523239 C137.463362,138.150479 133.607656,127.90027 130.607117,126.665816 C131.002896,127.167607 131.393963,127.792687 131.789742,128.49865 C129.788074,128.688687 126.052515,130.539583 124.151362,132.703804 C121.809669,132.949595 119.513521,133.540123 117.33281,134.404712 C113.085252,128.165693 98.8293497,120.885399 88.7330552,124.311558 C90.953816,122.46773 93.4164417,120.725202 96.1342822,119.115387" id="Fill-13" fill="#000000"></path>
    <path d="M121.639264,238.807166 C113.884663,244.433669 97.9011534,249.58665 81.6993374,249.816736 C53.714454,250.218798 37.4796564,234.642061 37.5275583,222.013252 C37.5652515,212.004123 47.382773,204.605252 54.7494479,203.525497 C65.7111166,201.918037 76.4631166,207.872 85.6728344,212.45173 C84.7454233,214.948908 85.8770061,218.221939 90.2478528,221.488687 C99.0562945,228.077153 112.330601,226.276515 117.415264,220.89973 C117.878577,220.40265 118.266503,219.86238 118.575117,219.282847 C123.290699,224.372221 128.31411,233.961227 121.639264,238.807166" id="Fill-14" fill="#F3B237"></path>
    <path d="M116.198871,220.083828 C112.109939,224.409129 98.9887607,226.092761 91.2757791,220.571485 C87.0981104,217.580368 84.2530552,212.985718 89.412319,209.893301 C89.9965644,211.074356 90.5336933,212.212221 91.0072147,213.264491 C100.312736,222.197006 111.842945,218.602012 112.11465,211.945227 C111.327804,210.933006 110.067436,209.252515 108.590331,207.242994 C116.002552,208.534773 121.349497,214.617521 116.198871,220.083828" id="Fill-15" fill="#F3B237"></path>
    <path d="M110.921816,212.049669 C110.315583,217.07465 101.329669,220.30135 92.1961227,212.776834 C89.3094479,206.433374 83.7913129,196.688098 80.2968344,190.577865 C84.8035337,192.274061 89.6070675,193.451975 97.2847117,192.307828 C100.286822,198.187975 107.176049,207.381202 110.921816,212.049669" id="Fill-16" fill="#000000"></path>
    <path d="M103.858258,189.889963 C98.6220368,180.758773 93.3873865,175.034896 82.2694479,175.194307 C95.4385276,176.961178 97.8281227,183.647804 102.213104,190.153816 C84.9841472,193.973399 78.3509202,187.512933 68.4478037,185.353423 C72.0121718,179.470135 70.5656933,167.279509 72.3325644,162.522307 C72.6066258,163.700221 72.9442945,164.887558 73.3628466,166.07411 C70.9394847,151.138945 75.0229202,136.554012 87.296,125.557006 L87.2724417,125.58135 C97.8673865,121.328294 112.409129,129.203828 116.499632,134.754945 C114.263166,135.725546 112.151558,136.992196 110.228417,138.46773 C107.352736,132.941742 100.441521,136.678086 97.1779141,143.561031 C94.3399264,149.543264 95.1927362,157.59627 99.9381595,158.921031 C100.754061,162.384098 103.674503,164.399902 105.834012,165.190675 C107.370798,176.279558 117.627288,183.752245 127.768344,182.096098 C129.850896,181.752147 131.697865,181.246429 133.329669,180.614282 C134.560196,183.301497 135.530798,185.583509 135.598331,187.697472 C133.704245,193.053055 119.881816,199.439706 103.858258,189.889963" id="Fill-17" fill="#DC3B41"></path>
    <path d="M113.499877,195.371975 C120.042798,196.966871 125.592344,196.166675 129.654577,194.396663 C131.218061,197.111362 136.469202,204.034356 138.438675,205.807509 C133.28962,208.985521 128.69811,215.610896 127.155043,221.902528 C123.415558,214.181693 116.79411,200.408736 113.499877,195.371975" id="Fill-18" fill="#000000"></path>
    <path d="M144.825325,204.804712 C143.628564,208.405988 142.646969,212.258552 141.901742,216.32 C137.135117,219.181546 132.531043,226.154012 131.366479,233.589791 C121.896834,227.638969 134.38508,204.620172 144.825325,204.804712" id="Fill-19" fill="#F3B237"></path>
    <path d="M132.77919,238.672883 C131.987632,230.31362 136.583067,221.326135 141.644172,217.810454 C141.165939,220.71519 140.807067,223.71573 140.576982,226.792442 C145.60746,197.083877 160.500221,170.426896 181.923337,179.822724 C194.073914,185.150822 196.825521,196.231067 195.62562,206.933595 C192.036908,193.73389 178.190135,193.927067 172.361816,198.97011 C162.806577,207.228074 163.681374,218.488147 160.328245,224.966675 C156.47254,232.421301 139.17762,244.377914 143.494282,252.917791 C137.91411,250.423755 133.423117,245.44589 132.77919,238.672883" id="Fill-20" fill="#F3B237"></path>
    <path d="M152.401669,254.703509 C149.711313,254.792245 146.962847,254.298307 144.405202,253.301791 C142.122405,248.359264 146.392736,242.795583 151.33762,237.384245 C160.730307,240.089521 174.837791,238.273963 183.846479,234.18189 C177.221104,242.316564 165.208736,254.30773 152.401669,254.703509" id="Fill-21" fill="#DFA926"></path>
    <path d="M187.337816,229.608442 C186.66562,230.546847 185.825374,231.684712 184.840638,232.939583 C175.279117,236.712834 162.236466,238.816589 152.00589,236.65708 C155.637791,232.743264 159.478577,228.924466 161.263509,225.513227 C164.843583,218.675828 164.613497,207.279902 173.092123,199.856687 C179.042945,194.635387 192.481374,194.813644 195.202356,209.828908 C193.784933,217.844221 190.371337,225.326331 187.337816,229.608442" id="Fill-22" fill="#DFA926"></path>
    <path d="M105.406037,81.8493252 C105.068368,74.2745521 100.896982,64.2088834 97.4456933,64.8802945 C89.6533988,66.3943067 94.8495706,92.5196564 102.047411,90.0782331 C102.213104,90.1363436 102.378798,90.1732515 102.560982,90.1779632 C105.359706,90.2604172 106.437104,85.0705276 105.406037,81.8493252" id="Fill-23" fill="#000000"></path>
    <path d="M101.152982,89.4696442 C95.6191411,89.230135 91.6652761,66.8639018 97.3663804,65.7731534 C100.042601,65.2580123 103.09654,72.9419387 103.968982,79.7282945 C99.2730307,77.1376687 98.7468957,87.04 101.152982,89.4696442" id="Fill-24" fill="#FFFFFF"></path>
    <path d="M84.7053742,131.15838 C88.8398528,131.266748 81.453546,150.629301 76.8675337,149.951607 C72.5869939,149.321816 79.6065767,131.025669 84.7053742,131.15838" id="Fill-25" fill="#000000"></path>
    <path d="M84.5428221,131.76854 C87.1711411,131.635043 79.9411043,149.680687 77.0717055,149.018699 C74.2894724,148.373988 80.9211288,131.952294 84.5428221,131.76854" id="Fill-26" fill="#FFFFFF"></path>
    <path d="M108.836908,153.89919 C110.028957,151.047067 116.481571,145.728393 117.387779,146.947926 C117.864442,147.679804 113.398577,148.857718 108.836908,153.89919" id="Fill-27" fill="#000000"></path>
    <path d="M111.77384,164.157252 C113.315337,158.270822 118.64265,153.58665 119.039215,154.009914 C119.688638,154.700172 114.940074,158.148319 111.77384,164.157252" id="Fill-28" fill="#000000"></path>
    <path d="M117.576245,169.23092 C117.700319,166.957546 122.205448,159.043534 123.180761,159.973301 C123.718675,160.494724 120.663951,163.304442 117.576245,169.23092" id="Fill-29" fill="#000000"></path>
    <path d="M102.824834,79.917546 C106.246282,80.073816 105.088785,89.6306258 102.700761,89.5748712 C100.005693,89.5151902 99.7190675,79.7746258 102.824834,79.917546" id="Fill-30" fill="#000000"></path>
    <path d="M92.2079018,89.6486871 C91.3307485,89.526184 90.4693006,89.4743558 89.6408344,89.4743558 C89.3997546,87.844908 89.8143804,85.5165644 90.7355092,85.4160491 C91.8678773,85.2911902 92.5424294,87.8331288 92.2079018,89.6486871" id="Fill-31" fill="#000000"></path>
    <path d="M61.0238037,40.470773 C53.8353865,30.0140368 38.7879264,38.3591656 35.1575951,53.083092 C44.0351411,34.4665521 54.7494479,34.6825031 61.0238037,40.470773" id="Fill-32" fill="#000000"></path>
    <path d="M67.9522945,210.991902 C76.1223067,211.64211 96.4201227,225.445693 98.0425031,231.016442 C94.3650552,225.712687 76.0704785,213.592736 67.9522945,210.991902" id="Fill-33" fill="#000000"></path>
    <path d="M70.5656933,87.296 C65.9184294,91.2318037 68.7799755,97.8477546 71.3093497,100.190233 C76.8290552,105.305521 83.3005153,104.639607 85.595092,102.546061 C88.4354356,99.9460123 87.6242454,96.8638037 83.2298405,91.406135 C79.3325153,86.5751166 74.7999018,83.7127853 70.5656933,87.296" id="Fill-34" fill="#000000"></path>
    <path d="M107.757153,45.2052025 C113.755877,43.5357055 122.847804,43.3739387 128.838675,45.0261595 C134.365448,42.4857914 145.232883,34.9000245 142.63519,21.5872393 C139.957399,7.87239264 127.533546,1.0569816 116.278969,2.37703067 C101.624147,4.09364417 94.5228957,18.4312147 95.1189202,27.3252515 C95.7282945,36.5106258 99.7646135,41.7287853 107.757153,45.2052025" id="Fill-35" fill="#000000"></path>
    <path d="M170.181104,30.495411 C158.862135,30.495411 145.647509,42.4496687 148.085791,57.8724908 C151.702773,62.6116319 154.481865,68.2899632 155.644074,73.9541595 C159.199804,76.8416196 164.457227,78.5739387 169.751558,78.5739387 C181.705816,78.5739387 191.512344,67.8572761 191.512344,54.5413497 C191.512344,41.230135 182.144,30.495411 170.181104,30.495411" id="Fill-36" fill="#000000"></path>
    <path d="M155.061399,80.708319 C154.776344,69.4403926 149.266847,58.4708712 139.395926,51.2196319 C130.450847,44.6531534 117.309252,43.3111166 105.907828,47.0019141 C118.506012,47.7730552 123.626798,68.4462331 122.934969,81.7653006 C127.552393,74.3577914 136.168442,68.7163681 144.285055,70.4015706 C150.027779,71.5904785 153.705227,76.7253988 155.006429,82.912589 C155.040196,82.1579387 155.058258,81.4252761 155.061399,80.708319" id="Fill-37" fill="#000000"></path>
  </g>
</svg>
