<?xml version="1.0" encoding="UTF-8"?>
<svg width="189px" height="260px" viewBox="0 0 189 260" version="1.1" xmlns="http://www.w3.org/2000/svg" xmlns:xlink="http://www.w3.org/1999/xlink">
    <!-- Generator: Sketch 46.2 (44496) - http://www.bohemiancoding.com/sketch -->
    <title>peas</title>
    <desc>Created with Sketch.</desc>
    <defs></defs>
    <g id="Page-1" stroke="none" stroke-width="1" fill="none" fill-rule="evenodd" stroke-linecap="round" stroke-linejoin="round">
        <g id="peas" transform="translate(2.000000, 2.000000)" stroke="#3F9345" fill-rule="nonzero" stroke-width="3" fill="#FFFFFF">
            <path d="M77.8512748,102.946112 C77.8512748,102.946112 79.0558931,114.362294 86.5978508,124.673685 C94.0874339,135.037685 101.94364,145.71734 105.609869,170.285807 C109.276099,194.854274 109.118975,213.267472 108.909476,217.634031 C108.752352,222.000589 107.704858,239.887695 97.0204174,246.411228 C86.388352,252.882152 83.4029937,249.041685 79.7367643,253.776508 C76.0705348,258.51133 75.1801648,254.986518 75.1801648,249.725604 C75.1801648,244.46469 73.9755465,238.309421 75.1801648,234.837218 C76.384783,231.312406 73.6089236,227.103675 75.7039119,222.368853 C77.7989001,217.634031 74.2897948,210.426579 76.5942819,204.113482 C78.8463943,197.800386 74.8659166,195.012102 75.3896636,186.59464 C75.9134107,178.177178 72.4043053,177.072386 73.6612983,165.86664 C74.8659166,154.660893 70.3616918,152.924792 71.56631,143.823411 C72.7709283,134.72203 68.2667035,129.618944 69.1046988,122.095838 C69.9950688,114.572731 72.6138042,100 72.6138042,100 L77.8512748,102.946112" id="Shape"></path>
            <path d="M67.3850997,104.763912 C67.3850997,104.763912 66.8604407,110.043845 63.7124869,113.494098 C60.5645331,116.944351 56,122.537943 56,122.537943 C56,122.537943 67.4900315,119.767285 71.0577125,113.650927 C74.5729276,107.482293 73.6810073,107.53457 73.6810073,107.53457 C73.6810073,107.53457 72.841553,115.271501 73.7859391,120.499157 C74.7303253,125.726813 73.7859391,132 73.7859391,132 C73.7859391,132 79.8195173,122.11973 79.452256,108.318718 C79.452256,108.318718 85.9055614,112.866779 95.3494229,111.821248 C104.793284,110.775717 106,101.209106 106,101.209106 C106,101.209106 102.327387,106.698145 95.6642183,106.645868 C89.0010493,106.593592 83.5970619,101 83.5970619,101" id="Shape"></path>
            <path d="M28.7672822,35 C28.7672822,35 35.8364108,45.0079838 40.1283818,53.4357596 C44.4203528,61.8635353 47.4499793,82.9329748 46.9450416,100.209915 C46.4401038,117.486856 44.9252905,147.984869 44.6728216,152.725493 C44.4203528,157.466117 42.6530706,169.054309 27,166.683997" id="Shape"></path>
            <path d="M28,54 C28,54 35.5777778,54.2642857 35.8222222,61.9285714 C36.0666667,69.5928571 29.4666667,70.3857143 29.4666667,70.3857143 C29.4666667,70.3857143 37.0444444,70.3857143 37.2888889,78.05 C37.5333333,85.7142857 29.4666667,87.0357143 29.4666667,87.0357143 C29.4666667,87.0357143 36.8,84.9214286 37.2888889,90.2071429 C37.7777778,95.4928571 36.5555556,100.514286 29.9555556,100.514286 C29.9555556,100.514286 37.4844444,101.307143 37.3866667,107.385714 C37.2888889,113.464286 33.3777778,114.521429 29.2222222,115.578571 C29.2222222,115.578571 39,114.785714 39,121.128571 C39,127.471429 36.8,128 36.8,128" id="Shape"></path>
            <path d="M28,128.171101 C28,128.171101 36.3481976,126.829669 38.1190273,131.658825 C39.8898571,136.48798 38.8779544,140.512276 36.0952219,144" id="Shape"></path>
            <path d="M29,159 C32.1010977,159 39.7128828,158.740575 39.9948008,149.141836 C40.2767188,139.543098 29,142.396777 29,142.396777" id="Shape"></path>
            <path d="M185,112.262768 C185,112.262768 175.482949,116.736545 172.046236,115.683892 C168.609523,114.631238 143.230721,101.736233 137.414745,97.5256189 C131.59877,93.3150049 105.42688,77.7883659 102.254529,72.5250984 C99.0821792,67.2618309 92.473116,60.1564198 88.7720407,56.2089692 C85.0709653,52.2615186 78.4619022,45.1561075 73.7033767,40.8402282 C68.9448512,36.5243489 59.9565254,26.5241407 58.3703502,20.7345465 C56.7841751,14.9449523 55.4623624,6.26056093 49.3820244,3.89209057 C43.3016863,1.52362021 35.8995355,-2.95015714 32.1984602,2.83943708 C28.4973848,8.6290313 29.0261099,14.9449523 29.0261099,14.9449523 C29.0261099,14.9449523 31.6697351,7.05005105 36.4282606,6.26056093 C41.1867861,5.47107081 45.4165865,5.20790744 47.0027616,7.31321443 C48.5889368,9.41852142 54.6692749,16.2607691 54.9336374,21.7872 C55.1979999,27.3136308 65.4023934,38.6296559 67.4115486,42.3139431 C69.4735763,45.9982303 75.2895519,52.8404781 78.9906272,55.7352752 C82.6917026,58.6300723 92.2087535,68.8934438 93.7949287,70.7355875 C95.3811038,72.5777311 94.5880162,76.156753 89.8294908,75.7356916 C76.1355119,74.5777727 79.5193523,87.8412067 78.1975396,89.6833504 C78.1975396,89.6833504 78.1975396,74.2619767 96.967279,79.4199788 C103.364852,81.156857 104.633792,83.104266 108.070505,86.7885532 C111.507218,90.4728405 124.725344,98.4203744 130.012595,101.946764 C135.299845,105.473153 144.552534,110.262726 151.425959,115.894422 C158.299385,121.526119 165.172811,128.368366 178.390937,131" id="Shape"></path>
            <path d="M72.3415172,96.2659195 C70.2706011,98.3545594 65.7663587,102.009679 67.3195457,103.210647 C68.8727328,104.411615 71.8237882,107.701223 76.7939867,106.865767 C81.8159581,106.030311 86.4755193,102.375191 84.5599219,100.443199 C82.6443246,98.5112074 79.7450421,94.5427917 79.7450421,92.4541518 C79.7450421,90.365512 78.0365363,90 78.0365363,90 C78.0365363,90 74.4124332,94.1772797 72.3415172,96.2659195" id="Shape"></path>
            <path d="M19.6173777,168.994656 C19.6173777,168.994656 23.8274827,169.256506 25.9325352,166.114312 C28.0375877,162.972119 30.9320348,164.124257 29.3532455,150.455716 C27.7744561,136.787175 29.616377,101.699349 29.3532455,92.534619 C29.0901139,83.3698885 30.9320348,69.7537175 29.3532455,61.6363848 C27.7744561,53.519052 30.9320348,50.3768587 27.7744561,44.616171 C24.6168773,38.8554833 22.5118248,31 22.5118248,31 C22.5118248,31 19.3542461,39.6410316 16.986062,44.0924721 C14.617878,48.5439126 12.5128255,50.6387082 11.9865624,64.5167286 C11.4602992,78.3947491 14.617878,80.4895446 11.9865624,97.7716078 C9.35524674,115.053671 12.933836,123.171004 11.9339361,131.550186 C10.9340361,139.929368 9.61837831,146.999303 14.8810095,151.712593 C20.1436408,156.425883 21.4592986,165.328764 19.6173777,168.994656" id="Shape"></path>
            <path d="M20.4285714,32 C20.4285714,32 15.7591837,33.826087 13.5836735,37.4782609 C11.4081633,41.1304348 6.89795918,48.9565217 0,50 C0,50 11.4081633,48.4347826 17.7755102,44.2608696 C24.1428571,40.0869565 25.2040816,38 25.2040816,38 C25.2040816,38 36.6122449,47.9130435 52,48.173913 C52,48.173913 45.6326531,47.3913043 42.4489796,42.173913 C39.2653061,36.9565217 34.2244898,32 34.2244898,32" id="Shape"></path>
            <path d="M30.483201,24.5 C29.698678,21.578125 28.6526473,16 28.6526473,16 C28.6526473,16 24.4685245,22.640625 21.5919401,24.5 C18.7153557,26.359375 13.74671,27.6875 17.1463097,30.34375 C20.5459095,33 18.7153557,33 25.2530476,33 C31.7907394,33 33.3597854,33 36.3409729,31.140625 C39.3221603,29.28125 31.267724,27.421875 30.483201,24.5" id="Shape"></path>
            <path d="M108.211803,52.844313 C108.211803,52.844313 112.369532,56.0227994 112.09955,52.844313 C111.829567,49.6658266 111.829567,45.9575925 107.779831,47.2819619 C103.730094,48.6063312 101.03027,51.678868 104.810024,54.2746319 C108.589778,56.8174209 112.09955,59.4661596 115.879304,56.8174209 C119.659058,54.1686823 117.93117,46.5932898 114.259409,47.017088 C110.587648,47.4408862 99.6803577,53.3740607 105.349989,62.9095198 C111.01962,72.4449789 107.455852,74.7758689 117.985167,85" id="Shape"></path>
        </g>
    </g>
</svg>