<?xml version="1.0" encoding="UTF-8"?>
<svg width="229px" height="326px" viewBox="0 0 229 326" version="1.1" xmlns="http://www.w3.org/2000/svg" xmlns:xlink="http://www.w3.org/1999/xlink">
    <!-- Generator: Sketch 46.2 (44496) - http://www.bohemiancoding.com/sketch -->
    <title>peas</title>
    <desc>Created with Sketch.</desc>
    <defs></defs>
    <g id="Page-1" stroke="none" stroke-width="1" fill="none" fill-rule="evenodd" stroke-linecap="round" stroke-linejoin="round">
        <g id="peas" transform="translate(3.000000, 3.000000)" stroke="#3F9345" fill-rule="nonzero" stroke-width="5" fill="#FFFFFF">
            <path d="M95.8428117,132.607098 C95.8428117,132.607098 97.318469,146.584604 106.557367,159.209448 C115.732106,171.898704 125.355959,184.974436 129.84709,215.055059 C134.338221,245.135682 134.145744,267.680046 133.889108,273.026281 C133.696631,278.372516 132.413451,300.272755 119.325011,308.259902 C106.300731,316.182635 102.643667,311.480525 98.1525362,317.277647 C93.6614051,323.074769 92.5707019,318.759134 92.5707019,312.317887 C92.5707019,305.87664 91.0950445,298.340381 92.5707019,294.089158 C94.0463592,289.773523 90.6459314,284.620525 93.212292,278.823403 C95.7786526,273.026281 91.4799986,264.201773 94.3029953,256.472276 C97.061833,248.74278 92.1857478,245.328919 92.8273379,235.022924 C93.4689281,224.716929 89.170274,223.364267 90.7100904,209.644411 C92.1857478,195.924555 86.6680724,193.798944 88.1437298,182.655587 C89.6193872,171.51223 84.1017118,165.26422 85.1282561,156.053237 C86.2189593,146.842254 89.4269101,129 89.4269101,129 L95.8428117,132.607098" id="Shape"></path>
            <path d="M80.8898216,127.613828 C80.8898216,127.613828 80.2497377,134.086003 76.409234,138.315346 C72.5687303,142.544688 67,149.401349 67,149.401349 C67,149.401349 81.0178384,146.005059 85.3704092,138.507589 C89.6589717,130.946037 88.570829,131.010118 88.570829,131.010118 C88.570829,131.010118 87.5466946,140.494098 88.6988458,146.902192 C89.8509969,153.310287 88.6988458,161 88.6988458,161 C88.6988458,161 96.0598111,148.888702 95.6117524,131.971332 C95.6117524,131.971332 103.484785,137.546374 115.006296,136.264755 C126.527807,134.983137 128,123.256324 128,123.256324 C128,123.256324 123.519412,129.984823 115.390346,129.920742 C107.26128,129.856661 100.668416,123 100.668416,123" id="Shape"></path>
            <path d="M223,137.114831 C223,137.114831 211.40872,142.578986 207.22298,141.293303 C203.03724,140.007619 172.12716,124.257994 165.0436,119.11526 C157.96004,113.972525 126.08402,95.0086911 122.22026,88.5802728 C118.3565,82.1518546 110.307,73.4734899 105.79928,68.6521762 C101.29156,63.8308625 93.2420603,55.1524978 87.4464204,49.8811948 C81.6507804,44.6098918 70.7034604,32.395897 68.7715804,25.3246369 C66.8397004,18.2533768 65.2298004,7.64648664 57.8242604,4.75369841 C50.4187204,1.86091018 41.4032805,-3.60324536 36.8955605,3.46801475 C32.3878405,10.5392749 33.0318005,18.2533768 33.0318005,18.2533768 C33.0318005,18.2533768 36.2516005,8.61074938 42.0472405,7.64648664 C47.8428805,6.68222389 52.9945604,6.36080298 54.9264404,8.93217029 C56.8583204,11.5035376 64.2638604,19.8604814 64.5858404,26.6103206 C64.9078204,33.3601598 77.3362484,47.1812591 79.7832964,51.6811519 C82.2947404,56.1810447 89.3783003,64.5379885 93.8860203,68.0736185 C98.3937403,71.6092486 109.98502,84.1446642 111.9169,86.3946106 C113.84878,88.644557 112.88284,93.0158815 107.0872,92.501608 C90.4086363,91.087356 94.5299803,107.28697 92.9200803,109.536916 C92.9200803,109.536916 92.9200803,90.7016509 115.78066,97.0015008 C123.572576,99.1228788 125.11808,101.501394 129.30382,106.001286 C133.48956,110.501179 149.58856,120.208091 156.02816,124.515131 C162.46776,128.822171 173.73706,134.672032 182.10854,141.55044 C190.48002,148.428847 198.8515,156.785791 214.9505,160" id="Shape"></path>
            <path d="M85.528521,117.740254 C82.9974013,120.320338 77.4922162,124.835486 79.3905559,126.319035 C81.2888956,127.802583 84.8957411,131.866216 90.9704282,130.834182 C97.1083933,129.802149 102.803412,125.287001 100.462127,122.900423 C98.1208411,120.513844 94.5772737,115.611684 94.5772737,113.031599 C94.5772737,110.451515 92.4891,110 92.4891,110 C92.4891,110 88.0596406,115.160169 85.528521,117.740254" id="Shape"></path>
            <g id="Group" transform="translate(0.000000, 18.000000)">
                <path d="M37.4949495,26.3026936 C37.4949495,26.3026936 46.5454545,38.5215488 52.040404,48.8111111 C57.5353535,59.1006734 61.4141414,84.8245791 60.7676768,105.918182 C60.1212121,127.011785 58.1818182,164.247138 57.8585859,170.035017 C57.5353535,175.822896 55.2727273,189.971044 35.2323232,187.077104" id="Shape"></path>
                <path d="M37.4949495,48.8111111 C37.4949495,48.8111111 47.5151515,49.1326599 47.8383838,58.4575758 C48.1616162,67.7824916 39.4343434,68.747138 39.4343434,68.747138 C39.4343434,68.747138 49.4545455,68.747138 49.7777778,78.0720539 C50.1010101,87.3969697 39.4343434,89.0047138 39.4343434,89.0047138 C39.4343434,89.0047138 49.1313131,86.4323232 49.7777778,92.8632997 C50.4242424,99.2942761 48.8080808,105.403704 40.0808081,105.403704 C40.0808081,105.403704 50.0363636,106.36835 49.9070707,113.763973 C49.7777778,121.159596 44.6060606,122.445791 39.1111111,123.731987 C39.1111111,123.731987 52.040404,122.76734 52.040404,130.484512 C52.040404,138.201684 49.1313131,138.844781 49.1313131,138.844781" id="Shape"></path>
                <path d="M37.4949495,138.844781 C37.4949495,138.844781 48.1616162,137.237037 50.4242424,143.024916 C52.6868687,148.812795 51.3939394,153.636027 47.8383838,157.816162" id="Shape"></path>
                <path d="M39.4343434,178.395286 C42.989899,178.395286 51.7171717,178.073737 52.040404,166.176431 C52.3636364,154.279125 39.4343434,157.816162 39.4343434,157.816162" id="Shape"></path>
                <path d="M27.4747475,190.614141 C27.4747475,190.614141 32.6464646,190.93569 35.2323232,187.077104 C37.8181818,183.218519 41.3737374,184.633333 39.4343434,167.848485 C37.4949495,151.063636 39.7575758,107.976094 39.4343434,96.7218855 C39.1111111,85.4676768 41.3737374,68.747138 39.4343434,58.7791246 C37.4949495,48.8111111 41.3737374,44.9525253 37.4949495,37.8784512 C33.6161616,30.8043771 31.030303,21.1579125 31.030303,21.1579125 C31.030303,21.1579125 27.1515152,31.7690236 24.2424242,37.2353535 C21.3333333,42.7016835 18.7474747,45.2740741 18.1010101,62.3161616 C17.4545455,79.3582492 21.3333333,81.9306397 18.1010101,103.152862 C14.8686869,124.375084 19.2646465,134.343098 18.0363636,144.63266 C16.8080808,154.922222 15.1919192,163.60404 21.6565657,169.391919 C28.1212121,175.179798 29.7373737,186.112458 27.4747475,190.614141" id="Shape"></path>
                <path d="M25.2121212,21.1579125 C25.2121212,21.1579125 19.5232323,23.4087542 16.8727273,27.9104377 C14.2222222,32.4121212 8.72727273,42.0585859 0.323232323,43.3447811 C0.323232323,43.3447811 14.2222222,41.4154882 21.979798,36.2707071 C29.7373737,31.1259259 31.030303,28.5535354 31.030303,28.5535354 C31.030303,28.5535354 44.9292929,40.7723906 63.6767677,41.0939394 C63.6767677,41.0939394 55.9191919,40.1292929 52.040404,33.6983165 C48.1616162,27.2673401 42.020202,21.1579125 42.020202,21.1579125" id="Shape"></path>
                <path d="M37.4949495,10.8683502 C36.5252525,7.33131313 35.2323232,0.578787879 35.2323232,0.578787879 C35.2323232,0.578787879 30.0606061,8.61750842 26.5050505,10.8683502 C22.9494949,13.1191919 16.8080808,14.726936 21.010101,17.9424242 C25.2121212,21.1579125 22.9494949,21.1579125 31.030303,21.1579125 C39.1111111,21.1579125 41.0505051,21.1579125 44.7353535,18.9070707 C48.420202,16.656229 38.4646465,14.4053872 37.4949495,10.8683502" id="Shape"></path>
            </g>
            <path d="M129.254163,64.0746947 C129.254163,64.0746947 134.243438,67.9223361 133.91946,64.0746947 C133.595481,60.2270533 133.595481,55.7381383 128.735797,57.3413223 C123.876113,58.9445062 120.636324,62.6638928 125.172029,65.8061333 C129.707734,68.8842464 133.91946,72.0906142 138.455164,68.8842464 C142.990869,65.6778786 140.917404,56.5076666 136.511291,57.0206855 C132.105178,57.5337043 119.016429,64.7159682 125.819987,76.2588924 C132.623544,87.8018165 128.347022,90.6234202 140.9822,103" id="Shape"></path>
        </g>
    </g>
</svg>