<?xml version="1.0" encoding="UTF-8"?>
<svg width="157px" height="200px" viewBox="0 0 157 200" version="1.1" xmlns="http://www.w3.org/2000/svg" xmlns:xlink="http://www.w3.org/1999/xlink">
  <g fill-rule="nonzero" fill="#5AA02C">
    <path d="M19.3451161,197.49114 C11.690436,189.859122 4.08634461,171.351972 0.851186155,152.479827 C-0.985413976,141.766053 0.169681965,120.636553 4.12668476,92.5630858 C6.89322647,72.935496 8.38511582,68.6695438 14.7104185,62.2995011 L18.6770444,58.3048059 L19.3134609,51.3787113 C19.9995278,43.9121691 21.9381724,35.7469668 24.2915757,30.4119999 C30.1912314,17.0379057 42.5175236,5.97332475 56.945474,1.100535 C62.1336334,-0.651671005 62.1374713,-0.650035056 62.8794857,3.62181257 C63.8795322,9.37914514 63.8092994,9.73517222 61.5909887,10.1523907 C56.7461612,11.0635903 46.1750028,17.3574289 41.8025874,21.9340006 C39.8138375,24.0155939 39.803788,24.0543138 40.1412779,28.3373138 C40.8003662,36.7018255 44.0454746,43.9218594 50.6612506,51.7431376 L54.0231721,55.7176115 L60.3952256,56.4309168 C73.0973294,57.8528249 83.8961965,61.8193471 89.2005435,67.0113778 C90.787697,68.5649456 95.9283523,74.7396434 100.624157,80.732919 C105.319962,86.7262088 111.160358,94.1641532 113.602828,97.261684 C116.045284,100.359215 121.759045,107.807915 126.300042,113.814358 C146.333735,140.313179 154.199299,152.873438 154.210016,158.382954 C154.210016,159.68161 154.742029,162.949661 155.38659,165.645387 C157.351289,173.861374 157.476887,176.420181 156.00703,178.284038 C154.383544,180.342698 151.609455,180.85473 146.964523,179.953177 C137.656764,178.146692 126.097091,172.841684 114.482508,165.046498 C105.630615,159.105422 100.325685,154.764598 94.8539935,148.985222 C83.1453408,136.618156 54.9770648,94.6142103 49.6455542,81.5715141 C48.1769479,77.9788093 47.975176,76.7101076 47.8971253,70.5778334 L47.8088546,63.6455114 L44.8949064,60.5424941 C43.2922167,58.8358339 40.8868743,55.9784656 39.5496507,54.1927725 C36.916766,50.6768063 32.3215131,42.0743337 32.3215131,40.6614177 C32.3215131,40.0728606 32.1276443,39.9835104 31.7254794,40.3866979 C30.690082,41.4247278 29.3774491,49.9504333 29.3774491,55.6373673 L29.3774491,61.1103026 L31.6080267,63.7022281 C37.2813767,70.2946773 40.7569983,76.0238353 42.6423109,81.8910515 C43.5573558,84.7387011 43.6269348,86.7227317 43.273596,99.8955913 C42.2174741,139.270432 40.353611,166.624406 37.9341538,178.25776 C37.3483545,181.074287 36.3024954,183.649097 34.7629313,186.064831 C33.4994656,188.04745 31.6000241,191.332488 30.5419549,193.364971 C27.8745721,198.488841 26.3575234,200 23.8810812,200 C22.2922219,200 21.3246267,199.464825 19.3451019,197.49114 L19.3451161,197.49114 Z M27.0970503,179.005081 C30.7451624,177.113793 32.8350896,172.227433 31.7399211,168.149957 C30.4640606,163.399676 26.5537233,160.449024 21.5344296,160.449024 C16.722423,160.449024 12.3018069,164.880923 12.3018069,169.705164 C12.3018069,177.74332 20.0891205,182.638257 27.0970503,179.005081 Z M137.023616,164.819347 C140.253786,163.205585 142.65357,160.066386 143.358556,156.532664 C143.894265,153.84717 142.602754,150.018478 140.29866,147.461637 C133.658468,140.093052 121.23269,144.812581 121.23269,154.703236 C121.23269,159.786963 124.017782,163.823427 128.673687,165.487492 C131.974857,166.6673 133.582038,166.538718 137.023616,164.819347 L137.023616,164.819347 Z M26.9478145,149.861452 C33.1500783,146.689235 35.2031763,138.796534 31.4819886,132.430652 C29.3953164,128.860947 26.2411937,126.817877 22.165928,126.396207 C18.1231277,125.9779 15.182134,126.919027 12.2592493,129.566415 C5.18577738,135.97311 8.06904684,148.03925 17.3854344,151.018887 C19.8110321,151.794652 24.2087917,151.262341 26.9478145,149.861452 L26.9478145,149.861452 Z M114.624011,141.626399 C117.308053,140.253612 120.445389,136.866612 121.600755,134.094447 C122.046032,133.026078 122.41033,130.673873 122.41033,128.867317 C122.41033,112.863741 100.007143,109.418357 94.9620932,124.64604 C91.1012501,136.299644 103.724322,147.201153 114.624011,141.626399 L114.624011,141.626399 Z M25.119416,117.03289 C29.327827,115.27004 32.2956715,111.00936 32.2956715,106.730597 C32.2956715,102.096656 28.1479413,96.7722957 23.5767674,95.538251 C19.1886594,94.3536696 13.8544908,96.4410016 11.2720384,100.353272 C9.93951963,102.371974 9.65213509,103.460508 9.65213509,106.489052 C9.65213509,109.623634 9.91581019,110.551152 11.4264624,112.730456 C14.5966473,117.303833 20.2397351,119.076929 25.119416,117.03289 L25.119416,117.03289 Z M91.1976798,112.404235 C98.7670315,108.652011 100.01914,97.3588434 93.4874031,91.7536613 C85.5264477,84.9220899 73.4919466,89.8254924 72.4870815,100.310193 C72.0981642,104.367747 73.5803879,107.918428 76.8778191,110.828337 C81.1004444,114.554711 85.8133348,115.073356 91.1976798,112.404235 L91.1976798,112.404235 Z M27.369851,86.0038971 C28.3706793,85.4017736 29.6619197,83.8589507 30.2392758,82.5753573 C31.7151314,79.2941811 31.0699447,76.4116038 28.2202636,73.554663 C26.2690394,71.5984778 25.6318696,71.3118303 23.2349279,71.3118303 C18.182515,71.3118303 14.6638099,74.5331832 14.6592755,79.1627922 C14.6550112,83.1125415 16.4866079,85.6103002 20.3924393,86.9827878 C22.8853132,87.8587618 24.7127736,87.6023823 27.369851,86.0038971 L27.369851,86.0038971 Z M72.1719933,84.2268826 C74.1966485,82.9794425 76.4906076,78.9009832 76.4697695,76.5858581 C76.4474531,74.0964217 74.2995173,70.2189362 72.2480113,68.9644992 C69.3078705,67.1666505 66.8032981,66.8927287 63.8041111,68.0410428 C57.495894,70.4562914 55.8667515,78.3164305 60.7205339,82.9187499 C64.2069868,86.2246363 68.1909541,86.6797381 72.1719933,84.2268826 Z" id="path4843"></path>
  </g>
</svg>
