<?xml version="1.0" encoding="UTF-8"?>
<svg width="352px" height="503px" viewBox="0 0 352 503" version="1.1" xmlns="http://www.w3.org/2000/svg" xmlns:xlink="http://www.w3.org/1999/xlink">
    <!-- Generator: Sketch 46.2 (44496) - http://www.bohemiancoding.com/sketch -->
    <title>peas</title>
    <desc>Created with Sketch.</desc>
    <defs></defs>
    <g id="Page-1" stroke="none" stroke-width="1" fill="none" fill-rule="evenodd" stroke-linecap="round" stroke-linejoin="round">
        <g id="peas" transform="translate(2.000000, 2.000000)" stroke="#3F9345" fill-rule="nonzero" stroke-width="5" fill="#FFFFFF">
            <path d="M148.7,206.9 C148.7,206.9 151,228.6 165.4,248.2 C179.7,267.9 194.7,288.2 201.7,334.9 C208.7,381.6 208.4,416.6 208,424.9 C207.7,433.2 205.7,467.2 185.3,479.6 C165,491.9 159.3,484.6 152.3,493.6 C145.3,502.6 143.6,495.9 143.6,485.9 C143.6,475.9 141.3,464.2 143.6,457.6 C145.9,450.9 140.6,442.9 144.6,433.9 C148.6,424.9 141.9,411.2 146.3,399.2 C150.6,387.2 143,381.9 144,365.9 C145,349.9 138.3,347.8 140.7,326.5 C143,305.2 134.4,301.9 136.7,284.6 C139,267.3 130.4,257.6 132,243.3 C133.7,229 138.7,201.3 138.7,201.3 L148.7,206.9" id="Shape"></path>
            <path d="M126.7,198.2 C126.7,198.2 125.7,208.3 119.7,214.9 C113.7,221.5 105,232.2 105,232.2 C105,232.2 126.9,226.9 133.7,215.2 C140.4,203.4 138.7,203.5 138.7,203.5 C138.7,203.5 137.1,218.3 138.9,228.3 C140.7,238.3 138.9,250.3 138.9,250.3 C138.9,250.3 150.4,231.4 149.7,205 C149.7,205 162,213.7 180,211.7 C198,209.7 200.3,191.4 200.3,191.4 C200.3,191.4 193.3,201.9 180.6,201.8 C167.9,201.7 157.6,191 157.6,191" id="Shape"></path>
            <path d="M58,68.9 C58,68.9 72,87.9 80.5,103.9 C89,119.9 95,159.9 94,192.7 C93,225.5 90,283.4 89.5,292.4 C89,301.4 85.5,323.4 54.5,318.9" id="Shape"></path>
            <path d="M58,103.9 C58,103.9 73.5,104.4 74,118.9 C74.5,133.4 61,134.9 61,134.9 C61,134.9 76.5,134.9 77,149.4 C77.5,163.9 61,166.4 61,166.4 C61,166.4 76,162.4 77,172.4 C78,182.4 75.5,191.9 62,191.9 C62,191.9 77.4,193.4 77.2,204.9 C77,216.4 69,218.4 60.5,220.4 C60.5,220.4 80.5,218.9 80.5,230.9 C80.5,242.9 76,243.9 76,243.9" id="Shape"></path>
            <path d="M58,243.9 C58,243.9 74.5,241.4 78,250.4 C81.5,259.4 79.5,266.9 74,273.4" id="Shape"></path>
            <path d="M61,305.4 C66.5,305.4 80,304.9 80.5,286.4 C81,267.9 61,273.4 61,273.4" id="Shape"></path>
            <path d="M347,213.9 C347,213.9 329,222.4 322.5,220.4 C316,218.4 268,193.9 257,185.9 C246,177.9 196.5,148.4 190.5,138.4 C184.5,128.4 172,114.9 165,107.4 C158,99.9 145.5,86.4 136.5,78.2 C127.5,70 110.5,51 107.5,40 C104.5,29 102,12.5 90.5,8 C79,3.5 65,-5 58,6 C51,17 52,29 52,29 C52,29 57,14 66,12.5 C75,11 83,10.5 86,14.5 C89,18.5 100.5,31.5 101,42 C101.5,52.5 120.8,74 124.6,81 C128.5,88 139.5,101 146.5,106.5 C153.5,112 171.5,131.5 174.5,135 C177.5,138.5 176,145.3 167,144.5 C141.1,142.3 147.5,167.5 145,171 C145,171 145,141.7 180.5,151.5 C192.6,154.8 195,158.5 201.5,165.5 C208,172.5 233,187.6 243,194.3 C253,201 270.5,210.1 283.5,220.8 C296.5,231.5 309.5,244.5 334.5,249.5" id="Shape"></path>
            <path d="M134,182.9 C130,186.9 121.3,193.9 124.3,196.2 C127.3,198.5 133,204.8 142.6,203.2 C152.3,201.6 161.3,194.6 157.6,190.9 C153.9,187.2 148.3,179.6 148.3,175.6 C148.3,171.6 145,170.9 145,170.9 C145,170.9 138,178.9 134,182.9" id="Shape"></path>
            <path d="M42.5,324.4 C42.5,324.4 50.5,324.9 54.5,318.9 C58.5,312.9 64,315.1 61,289 C58,262.9 61.5,195.9 61,178.4 C60.5,160.9 64,134.9 61,119.4 C58,103.9 64,97.9 58,86.9 C52,75.9 48,60.9 48,60.9 C48,60.9 42,77.4 37.5,85.9 C33,94.4 29,98.4 28,124.9 C27,151.4 33,155.4 28,188.4 C23,221.4 29.8,236.9 27.9,252.9 C26,268.9 23.5,282.4 33.5,291.4 C43.5,300.4 46,317.4 42.5,324.4" id="Shape"></path>
            <path d="M39,60.9 C39,60.9 30.2,64.4 26.1,71.4 C22,78.4 13.5,93.4 0.5,95.4 C0.5,95.4 22,92.4 34,84.4 C46,76.4 48,72.4 48,72.4 C48,72.4 69.5,91.4 98.5,91.9 C98.5,91.9 86.5,90.4 80.5,80.4 C74.5,70.4 65,60.9 65,60.9" id="Shape"></path>
            <path d="M58,44.9 C56.5,39.4 54.5,28.9 54.5,28.9 C54.5,28.9 46.5,41.4 41,44.9 C35.5,48.4 26,50.9 32.5,55.9 C39,60.9 35.5,60.9 48,60.9 C60.5,60.9 63.5,60.9 69.2,57.4 C74.9,53.9 59.5,50.4 58,44.9" id="Shape"></path>
            <path d="M200.3,99.9 C200.3,99.9 208,105.9 207.5,99.9 C207,93.9 207,86.9 199.5,89.4 C192,91.9 187,97.7 194,102.6 C201,107.4 207.5,112.4 214.5,107.4 C221.5,102.4 218.3,88.1 211.5,88.9 C204.7,89.7 184.5,100.9 195,118.9 C205.5,136.9 198.9,141.3 218.4,160.6" id="Shape"></path>
        </g>
    </g>
</svg>