<?xml version="1.0" encoding="UTF-8"?>
<svg width="202px" height="256px" viewBox="0 0 202 256" version="1.1" xmlns="http://www.w3.org/2000/svg" xmlns:xlink="http://www.w3.org/1999/xlink">
    <!-- Generator: Sketch 46.2 (44496) - http://www.bohemiancoding.com/sketch -->
    <title>layer2</title>
    <desc>Created with Sketch.</desc>
    <defs></defs>
    <g id="Page-1" stroke="none" stroke-width="1" fill="none" fill-rule="evenodd">
        <g id="peas-1b7f0dab05d230ad89589c2c406fbe09a330564488e577969fb528df399ef457" fill-rule="nonzero" fill="#5AA02C">
            <g id="layer2">
                <path d="M25.3446167,252.735303 C15.5353811,242.973455 5.79097337,219.301608 1.64521796,195.162907 C-0.708328263,181.459293 0.771891432,154.43329 5.84266804,118.5255 C9.38790559,93.4205368 11.2997156,87.9641066 19.4053953,79.8164079 L24.4885035,74.7069329 L25.3040515,65.8480078 C26.1832251,56.297815 28.6675381,45.8539903 31.6833516,39.0302209 C39.2435778,21.9238849 55.0393397,7.77156665 73.5283115,1.53895179 C80.1767772,-0.702233596 80.1816953,-0.700141111 81.1325639,4.7638297 C82.4140924,12.1278323 82.3240913,12.5832141 79.4813948,13.1168636 C73.2728984,14.2823472 59.7262861,22.3325759 54.1231711,28.1863086 C51.5746496,30.8488018 51.5617715,30.898327 51.9942544,36.3765624 C52.8388556,47.0753167 56.9973616,56.3102095 65.4752738,66.3141327 L69.7834721,71.3977432 L77.9490614,72.3101071 C94.2264143,74.1288199 108.064828,79.2022596 114.862185,85.8432045 C116.896073,87.8303187 123.483663,95.7281586 129.501192,103.393948 C135.51872,111.059755 143.003008,120.573369 146.132957,124.535313 C149.262889,128.497256 156.584897,138.024628 162.404044,145.707259 C188.076602,179.600973 198.156078,195.666361 198.169812,202.71339 C198.169812,204.374456 198.851569,208.554506 199.677555,212.002514 C202.195256,222.511295 202.356205,225.784177 200.472629,228.16817 C198.392183,230.801331 194.837273,231.456253 188.884936,230.303107 C176.957331,227.992496 162.143968,221.207046 147.26024,211.236497 C135.916813,203.637474 129.11871,198.085278 122.106906,190.69308 C107.10263,174.874798 71.005856,121.149022 64.1736903,104.466565 C62.2917167,99.8712623 62.0331523,98.2485104 61.9331328,90.404933 L61.8200166,81.5380425 L58.0858822,77.5690817 C56.0320849,75.3861524 52.9497131,71.7313926 51.2361024,69.447375 C47.8621421,64.9502256 41.9734678,53.947104 41.9734678,52.1398925 C41.9734678,51.3870897 41.725031,51.272805 41.2096691,51.788508 C39.8828394,53.1162158 38.2007409,64.0211473 38.2007409,71.2951056 L38.2007409,78.2953456 L41.0591571,81.6105869 C48.3293795,90.0427579 52.7832811,97.3707235 55.1992507,104.875274 C56.3718525,108.517603 56.4610158,111.055307 56.008223,127.904251 C54.6548356,178.267232 52.2663526,213.254743 49.1658932,228.134559 C48.4152094,231.73708 47.0749734,235.03043 45.1020696,238.12031 C43.4829775,240.65621 41.0489019,244.857987 39.693019,247.457664 C36.2748505,254.011428 34.3307996,255.944298 31.1573156,255.944298 C29.1212416,255.944298 27.8812983,255.259774 25.3445985,252.735303 L25.3446167,252.735303 Z M35.2784805,229.090432 C39.9534232,226.67135 42.6316002,220.42138 41.2281757,215.206023 C39.5931999,209.130104 34.5822237,205.356028 28.1501543,205.356028 C21.9837167,205.356028 16.318834,211.024715 16.318834,217.195233 C16.318834,227.476556 26.2980354,233.7375 35.2784805,229.090432 Z M176.145972,210.945955 C180.285334,208.881849 183.360584,204.866609 184.264002,200.346749 C184.950495,196.911827 183.295465,192.014681 180.342839,188.744316 C171.833639,179.319417 155.910389,185.356001 155.910389,198.006792 C155.910389,204.50921 159.479398,209.672109 165.445796,211.800557 C169.676143,213.309607 171.735696,213.145143 176.145972,210.945955 L176.145972,210.945955 Z M35.0872394,191.813836 C43.0352485,187.756363 45.66623,177.661085 40.8976431,169.518709 C38.2236374,164.952825 34.1817267,162.339605 28.9593998,161.800261 C23.7786764,161.265219 20.009884,162.468982 16.2642978,165.855164 C7.19986245,174.049743 10.894683,189.48312 22.8333453,193.294269 C25.9416737,194.286523 31.5772664,193.605663 35.0872394,191.813836 L35.0872394,191.813836 Z M147.441572,181.280667 C150.881089,179.524783 154.901487,175.19259 156.382053,171.646811 C156.952661,170.280297 157.419498,167.271674 157.419498,164.960972 C157.419498,144.491357 128.710508,140.084487 122.245432,159.561684 C117.297881,174.467402 133.473958,188.41114 147.441572,181.280667 L147.441572,181.280667 Z M32.7442033,149.82397 C38.1371517,147.569171 41.9403526,142.119484 41.9403526,136.646668 C41.9403526,130.719556 36.6251648,123.909353 30.7673469,122.33093 C25.1441223,120.815773 18.3085503,123.485607 14.9992175,128.489655 C13.291636,131.071706 12.9233616,132.464011 12.9233616,136.337716 C12.9233616,140.347051 13.2612531,141.533406 15.1971071,144.320878 C19.259601,150.170524 26.4910433,152.438429 32.7442033,149.82397 L32.7442033,149.82397 Z M117.421453,143.90362 C127.121343,139.104282 128.725881,124.659586 120.355663,117.490194 C110.153945,108.75217 94.7321039,115.02394 93.4444004,128.434554 C92.946015,133.624429 94.8454388,138.16598 99.0709948,141.887944 C104.482158,146.654218 110.521582,147.317598 117.421453,143.90362 L117.421453,143.90362 Z M35.6280661,110.135871 C36.9105965,109.365716 38.5652812,107.392345 39.3051451,105.750546 C41.1964084,101.553708 40.3696217,97.8667046 36.7178436,94.2124916 C34.2174102,91.7104035 33.4008968,91.3437628 30.3292902,91.3437628 C23.8547794,91.3437628 19.3456677,95.4640825 19.3398571,101.385653 C19.3343925,106.43764 21.681527,109.632435 26.686729,111.387936 C29.8812698,112.508364 32.2231036,112.180438 35.6280661,110.135871 L35.6280661,110.135871 Z M93.0406247,107.862954 C95.6351576,106.267397 98.5747953,101.050783 98.5480918,98.0895872 C98.519494,94.9054362 95.7669808,89.9458802 93.1380394,88.3413738 C89.3703399,86.0418084 86.160808,85.6914446 82.3174427,87.1602129 C74.2336577,90.2494729 72.145962,100.303102 78.3659339,106.189768 C82.8337154,110.418211 87.9390462,111.000316 93.0406247,107.862954 Z" id="path4843"></path>
            </g>
        </g>
    </g>
</svg>